<svg width="48" height="48" viewBox="0 0 48 48" fill="none" xmlns="http://www.w3.org/2000/svg">
<path d="M23.8 4.28586C30.1591 4.28586 30.9121 4.31375 33.413 4.42531C35.7372 4.52758 36.9923 4.91805 37.829 5.24344C38.9353 5.67109 39.7348 6.19172 40.5623 7.01914C41.399 7.85586 41.9103 8.64609 42.338 9.75242C42.6634 10.5891 43.0538 11.8535 43.1561 14.1684C43.2677 16.6786 43.2956 17.4316 43.2956 23.7814C43.2956 30.1405 43.2677 30.8935 43.1561 33.3944C43.0538 35.7186 42.6634 36.9737 42.338 37.8104C41.9103 38.9167 41.3897 39.7163 40.5623 40.5437C39.7255 41.3804 38.9353 41.8917 37.829 42.3194C36.9923 42.6448 35.7279 43.0352 33.413 43.1375C30.9028 43.2491 30.1498 43.277 23.8 43.277C17.4409 43.277 16.6879 43.2491 14.187 43.1375C11.8628 43.0352 10.6077 42.6448 9.77102 42.3194C8.66469 41.8917 7.86516 41.3711 7.03773 40.5437C6.20102 39.707 5.68969 38.9167 5.26203 37.8104C4.93664 36.9737 4.54617 35.7093 4.44391 33.3944C4.33234 30.8842 4.30445 30.1312 4.30445 23.7814C4.30445 17.4223 4.33234 16.6693 4.44391 14.1684C4.54617 11.8442 4.93664 10.5891 5.26203 9.75242C5.68969 8.64609 6.21031 7.84656 7.03773 7.01914C7.87445 6.18242 8.66469 5.67109 9.77102 5.24344C10.6077 4.91805 11.8721 4.52758 14.187 4.42531C16.6879 4.31375 17.4409 4.28586 23.8 4.28586ZM23.8 0C17.3387 0 16.5298 0.0278906 13.9918 0.139453C11.463 0.251016 9.72453 0.660078 8.21844 1.24578C6.64727 1.85937 5.31781 2.6682 3.99766 3.99766C2.6682 5.31781 1.85938 6.64727 1.24578 8.20914C0.660078 9.72453 0.251016 11.4537 0.139453 13.9825C0.0278906 16.5298 0 17.3387 0 23.8C0 30.2613 0.0278906 31.0702 0.139453 33.6082C0.251016 36.137 0.660078 37.8755 1.24578 39.3816C1.85938 40.9527 2.6682 42.2822 3.99766 43.6023C5.31781 44.9225 6.64727 45.7406 8.20914 46.3449C9.72453 46.9306 11.4538 47.3397 13.9825 47.4512C16.5205 47.5628 17.3294 47.5907 23.7907 47.5907C30.252 47.5907 31.0609 47.5628 33.5989 47.4512C36.1277 47.3397 37.8662 46.9306 39.3723 46.3449C40.9341 45.7406 42.2636 44.9225 43.5838 43.6023C44.9039 42.2822 45.722 40.9527 46.3263 39.3909C46.912 37.8755 47.3211 36.1463 47.4327 33.6175C47.5442 31.0795 47.5721 30.2706 47.5721 23.8093C47.5721 17.348 47.5442 16.5391 47.4327 14.0011C47.3211 11.4723 46.912 9.73383 46.3263 8.22773C45.7406 6.64727 44.9318 5.31781 43.6023 3.99766C42.2822 2.6775 40.9527 1.85938 39.3909 1.25508C37.8755 0.669375 36.1463 0.260312 33.6175 0.14875C31.0702 0.0278906 30.2613 0 23.8 0Z" fill="white"/>
</svg>
