<svg width="35" height="35" viewBox="0 0 35 35" fill="none" xmlns="http://www.w3.org/2000/svg">
<path fill-rule="evenodd" clip-rule="evenodd" d="M29.2703 0.811279H5.49219C2.67813 0.811279 0.396881 3.05984 0.396881 5.83358V29.271C0.396881 32.0447 2.67813 34.2933 5.49219 34.2933H29.2703C32.0844 34.2933 34.3656 32.0447 34.3656 29.271V5.83358C34.3656 3.05984 32.0844 0.811279 29.2703 0.811279ZM10.4516 26.5589C10.3708 26.7644 10.2496 26.9522 10.095 27.1114C9.92987 27.2593 9.7403 27.3782 9.53447 27.4629C9.33028 27.5487 9.11101 27.5942 8.88907 27.5969C8.43938 27.5907 8.00866 27.4173 7.68318 27.1114C7.52855 26.9522 7.40734 26.7644 7.32651 26.5589C7.14481 26.1537 7.14481 25.6918 7.32651 25.2866C7.40734 25.0811 7.52855 24.8934 7.68318 24.7342C8.17158 24.2591 8.90198 24.1204 9.53447 24.3826C9.7403 24.4674 9.92987 24.5863 10.095 24.7342C10.2496 24.8934 10.3708 25.0811 10.4516 25.2866C10.6333 25.6918 10.6333 26.1537 10.4516 26.5589ZM10.4856 18.1884C10.5346 18.0935 10.5689 17.992 10.5875 17.8871C10.5958 17.7756 10.5958 17.6637 10.5875 17.5523C10.5812 17.109 10.4053 16.6845 10.095 16.3637C9.92987 16.2158 9.7403 16.0969 9.53447 16.0121C8.90198 15.7499 8.17158 15.8886 7.68318 16.3637C7.5259 16.5208 7.40432 16.7091 7.32651 16.9161C7.23948 17.1174 7.19331 17.3335 7.19063 17.5523C7.18802 17.9973 7.36525 18.425 7.68318 18.7409C8.00866 19.0468 8.43938 19.2202 8.88907 19.2264C9.12246 19.2282 9.35373 19.1826 9.56844 19.0924C9.77427 19.0077 9.96384 18.8888 10.1289 18.7409L10.3327 18.4898C10.397 18.3964 10.4484 18.2951 10.4856 18.1884ZM10.095 10.3704C9.92987 10.5183 9.7403 10.6372 9.53447 10.7219C9.3329 10.8157 9.11186 10.8615 8.88907 10.8559C8.43938 10.8497 8.00866 10.6763 7.68318 10.3704C7.36525 10.0545 7.18802 9.62676 7.19063 9.18178C7.19331 8.96301 7.23948 8.74688 7.32651 8.54562C7.41252 8.34274 7.53315 8.15589 7.68318 7.99317C8.17158 7.51815 8.90198 7.37945 9.53447 7.64161C9.7403 7.72638 9.92987 7.84529 10.095 7.99317C10.245 8.15589 10.3656 8.34274 10.4516 8.54562C10.5387 8.74688 10.5848 8.96301 10.5875 9.18178C10.5812 9.62502 10.4053 10.0496 10.095 10.3704ZM15.6828 27.5969H25.8734C26.8115 27.5969 27.5719 26.8474 27.5719 25.9228C27.5719 24.9982 26.8115 24.2487 25.8734 24.2487H15.6828C14.7448 24.2487 13.9844 24.9982 13.9844 25.9228C13.9844 26.8474 14.7448 27.5969 15.6828 27.5969ZM25.8734 19.2264H15.6828C14.7448 19.2264 13.9844 18.4769 13.9844 17.5523C13.9844 16.6277 14.7448 15.8782 15.6828 15.8782H25.8734C26.8115 15.8782 27.5719 16.6277 27.5719 17.5523C27.5719 18.4769 26.8115 19.2264 25.8734 19.2264ZM15.6828 10.8559H25.8734C26.8115 10.8559 27.5719 10.1064 27.5719 9.18178C27.5719 8.2572 26.8115 7.50768 25.8734 7.50768H15.6828C14.7448 7.50768 13.9844 8.2572 13.9844 9.18178C13.9844 10.1064 14.7448 10.8559 15.6828 10.8559Z" fill="#1F7CFF"/>
</svg>
