<svg width="37" height="37" viewBox="0 0 37 37" fill="none" xmlns="http://www.w3.org/2000/svg">
<path fill-rule="evenodd" clip-rule="evenodd" d="M32.9538 12.5255C33.2868 13.1459 33.7167 13.7109 34.2277 14.1996C35.5482 15.3013 36.3925 16.8581 36.5885 18.5523C36.3941 20.2045 35.5828 21.7263 34.3126 22.8213C33.8016 23.31 33.3718 23.875 33.0388 24.4954C32.8275 25.1897 32.7357 25.914 32.767 26.6382C32.909 28.2964 32.3981 29.9449 31.3403 31.242C30.0244 32.2846 28.352 32.7881 26.6696 32.6482C25.9349 32.6173 25.2001 32.7078 24.4956 32.9161C23.8691 33.2488 23.2966 33.672 22.7972 34.1716C21.6874 35.4828 20.1038 36.3172 18.3813 36.4986C16.7016 36.3181 15.1538 35.5165 14.0502 34.2554C13.5508 33.7557 12.9783 33.3325 12.3518 32.9998C11.6474 32.7916 10.9126 32.701 10.1778 32.7319C8.49546 32.8718 6.823 32.3683 5.5071 31.3257C4.44933 30.0286 3.93847 28.3802 4.08042 26.7219C4.11177 25.9977 4.01992 25.2734 3.80867 24.5791C3.47569 23.9587 3.04583 23.3937 2.53484 22.905C1.21435 21.8033 0.369995 20.2465 0.174011 18.5523C0.368442 16.9001 1.17973 15.3784 2.44992 14.2833C2.96091 13.7946 3.39077 13.2296 3.72375 12.6093C3.935 11.9149 4.02685 11.1906 3.9955 10.4664C3.85355 8.80816 4.36441 7.15967 5.42218 5.86263C6.73807 4.82002 8.41053 4.31647 10.0929 4.45639C10.8276 4.48729 11.5625 4.39676 12.2669 4.18853C12.8934 3.85585 13.4659 3.43264 13.9653 2.93296C15.0752 1.62184 16.6587 0.787395 18.3813 0.605957C20.061 0.786457 21.6087 1.58813 22.7123 2.84925C23.2117 3.34894 23.7842 3.77215 24.4107 4.10482C25.1151 4.31305 25.85 4.40359 26.5847 4.37268C28.2671 4.23277 29.9395 4.73631 31.2554 5.77892C32.3132 7.07596 32.824 8.72445 32.6821 10.3827C32.6507 11.1069 32.7426 11.8312 32.9538 12.5255ZM13.4218 9.89721C11.3113 9.89721 9.60034 11.5836 9.60034 13.6639C9.60034 15.7442 11.3113 17.4307 13.4218 17.4307C15.5324 17.4307 17.2433 15.7442 17.2433 13.6639C17.2433 11.5836 15.5324 9.89721 13.4218 9.89721ZM13.9144 25.3826C13.598 25.6919 13.171 25.8663 12.7255 25.8681C12.2778 25.8186 11.8685 25.5957 11.5875 25.2487C10.929 24.5957 10.929 23.5412 11.5875 22.8882L22.8482 11.8559C23.2097 11.2542 23.9125 10.9374 24.6106 11.0614C25.3088 11.1854 25.8553 11.724 25.9811 12.4122C26.1068 13.1004 25.7854 13.7931 25.175 14.1494L13.9144 25.3826ZM19.5192 23.5076C19.5192 25.5879 21.2302 27.2744 23.3407 27.2744V27.2074C25.425 27.2077 27.1251 25.5617 27.1622 23.5076C27.1622 21.4273 25.4512 19.7409 23.3407 19.7409C21.2302 19.7409 19.5192 21.4273 19.5192 23.5076Z" fill="#1F7CFF"/>
</svg>
