<svg width="35" height="28" viewBox="0 0 35 28" fill="none" xmlns="http://www.w3.org/2000/svg">
<path fill-rule="evenodd" clip-rule="evenodd" d="M34.3656 8.63807C34.3656 9.56265 33.6052 10.3122 32.6672 10.3122C30.7911 10.3122 29.2703 11.8112 29.2703 13.6604C29.2703 15.5095 30.7911 17.0086 32.6672 17.0086C33.6052 17.0086 34.3656 17.7581 34.3656 18.6827V22.0309C34.3656 24.8046 32.0844 27.0532 29.2703 27.0532H22.4766V22.0309C22.4766 21.1063 21.7162 20.3568 20.7781 20.3568C19.8401 20.3568 19.0797 21.1063 19.0797 22.0309V27.0532H5.49219C2.67813 27.0532 0.396881 24.8046 0.396881 22.0309V18.6827C0.396881 17.7581 1.1573 17.0086 2.09532 17.0086C3.97136 17.0086 5.49219 15.5095 5.49219 13.6604C5.49219 11.8112 3.97136 10.3122 2.09532 10.3122C1.1573 10.3122 0.396881 9.56265 0.396881 8.63807V5.28988C0.396881 2.51614 2.67813 0.267578 5.49219 0.267578H19.0797V5.28988C19.0797 6.21446 19.8401 6.96398 20.7781 6.96398C21.7162 6.96398 22.4766 6.21446 22.4766 5.28988V0.267578H29.2703C32.0844 0.267578 34.3656 2.51614 34.3656 5.28988V8.63807ZM20.7781 17.0086C21.7162 17.0086 22.4766 16.2591 22.4766 15.3345V11.9863C22.4766 11.0617 21.7162 10.3122 20.7781 10.3122C19.8401 10.3122 19.0797 11.0617 19.0797 11.9863V15.3345C19.0797 16.2591 19.8401 17.0086 20.7781 17.0086Z" fill="#1F7CFF"/>
</svg>
